<?xml version="1.0" encoding="UTF-8"?>
<svg width="671px" height="506px" viewBox="0 0 671 506" version="1.1" xmlns="http://www.w3.org/2000/svg" xmlns:xlink="http://www.w3.org/1999/xlink">
    <!-- Generator: Sketch 63.1 (92452) - https://sketch.com -->
    <title>404</title>
    <desc>Created with Sketch.</desc>
    <defs>
        <polygon id="path-1" points="0.09 0 750 0 750 750 0.09 750"></polygon>
    </defs>
    <g id="Desktop" stroke="none" stroke-width="1" fill="none" fill-rule="evenodd">
        <g id="404" transform="translate(-482.000000, -257.000000)">
            <rect fill="#FFFFFF" x="0" y="0" width="1440" height="1024"></rect>
            <g transform="translate(438.000000, 173.000000)">
                <g id="Group-3">
                    <g id="Fill-1-Clipped">
                        <mask id="mask-2" fill="white">
                            <use xlink:href="#path-1"></use>
                        </mask>
                        <g id="path-1"></g>
                        <polygon id="Fill-1" fill="#FFFFFE" fill-rule="nonzero" mask="url(#mask-2)" points="0.09 750 750 750 750 0 0.09 0"></polygon>
                    </g>
                </g>
                <path d="M226.947735,395.92842 L226.947735,375.172955 C226.947735,371.26622 227.088192,365.998273 227.373591,359.361622 C227.656002,352.729468 227.878643,349.248486 228.043008,348.923175 L226.70268,348.923175 C223.944324,355.192539 220.81988,361.054142 217.333831,366.504981 L197.618905,395.92842 L226.947735,395.92842 Z M294,431.948034 L274.407601,431.948034 L274.407601,466.5 L226.947735,466.5 L226.947735,431.948034 L156,431.948034 L156,396.540064 L229.988501,288 L274.407601,288 L274.407601,395.92842 L294,395.92842 L294,431.948034 L294,431.948034 Z" id="Fill-4" fill="#DB3056" fill-rule="nonzero"></path>
                <path d="M354.007884,376.80498 C354.007884,396.936654 355.269354,410.775873 357.795295,418.324129 C360.318237,425.872386 364.554138,429.647262 370.5,429.647262 C376.525361,429.647262 380.779262,425.751291 383.264703,417.957853 C385.748646,410.165913 386.990616,396.449284 386.990616,376.80498 C386.990616,357.079945 385.726146,343.260162 383.204705,335.345631 C380.678763,327.432594 376.442862,323.475328 370.5,323.475328 C364.554138,323.475328 360.318237,327.292063 357.795295,334.919556 C355.269354,342.551532 354.007884,356.51334 354.007884,376.80498 Z M435,376.80498 C435,408.300151 429.705123,431.372492 419.118369,446.023495 C408.531615,460.675994 392.324493,468 370.5,468 C349.161496,468 333.07737,460.351578 322.246122,445.048755 C311.414874,429.750417 306,407.000997 306,376.80498 C306,345.148348 311.291877,321.935478 321.880131,307.158895 C332.465385,292.386797 348.674007,285 370.5,285 C391.756005,285 407.819131,292.691777 418.690879,308.073835 C429.564126,323.457388 435,346.365279 435,376.80498 L435,376.80498 Z" id="Fill-5" fill="#DB3056" fill-rule="nonzero"></path>
                <path d="M519.447735,395.92842 L519.447735,375.172955 C519.447735,371.26622 519.588192,365.998273 519.873591,359.361622 C520.157496,352.729468 520.380137,349.248486 520.543008,348.923175 L519.204174,348.923175 C516.445818,355.192539 513.321373,361.054142 509.833832,366.504981 L490.1204,395.92842 L519.447735,395.92842 Z M586.5,431.948034 L566.909095,431.948034 L566.909095,466.5 L519.447735,466.5 L519.447735,431.948034 L448.5,431.948034 L448.5,396.540064 L522.489994,288 L566.909095,288 L566.909095,395.92842 L586.5,395.92842 L586.5,431.948034 L586.5,431.948034 Z" id="Fill-6" fill="#DB3056" fill-rule="nonzero"></path>
                <path d="M83.857928,327.656022 L156.070633,327.656022 M173.403362,327.656022 L188.8189,327.656022 M70.7811232,307.319908 L200.056521,307.319908 M60.1405617,307.319908 L49.5,307.319908 M70.7811232,288 L113.700405,288 M125.191552,288 L215.329545,288 M594.297355,489 L671.573065,489 M684.14132,489 L695.318935,489 M609.729396,468.662385 L711,468.662385 M602.012626,468.662385 L594.297355,468.662385 M594.297355,449.342476 L640.850001,449.342476 M649.181832,449.342476 L684.14132,449.342476" id="Stroke-7" stroke="#2A2A2A" stroke-width="3.2445" stroke-linecap="round" stroke-linejoin="round"></path>
                <path d="M236.267031,395.1899 L236.267031,374.489955 C236.267031,370.593953 236.408122,365.340479 236.694806,358.722059 C236.979987,352.108124 237.203629,348.636703 237.367234,348.312286 L236.022375,348.312286 C233.251605,354.564429 230.1131,360.409927 226.609861,365.845793 L206.806209,395.1899 L236.267031,395.1899 Z M303.622565,431.109071 L283.94199,431.109071 L283.94199,465.56612 L236.267031,465.56612 L236.267031,431.109071 L165,431.109071 L165,395.79837 L239.322984,287.556471 L283.94199,287.556471 L283.94199,395.1899 L303.622565,395.1899 L303.622565,431.109071 Z M364.253801,376.804235 C364.253801,396.936074 365.516107,410.775405 368.043723,418.323723 C370.568335,425.872041 374.807043,429.646949 380.756844,429.646949 C386.786196,429.646949 391.042917,425.750946 393.530006,417.957445 C396.015594,410.16544 397.256886,396.448699 397.256886,376.804235 C397.256886,357.07904 395.993079,343.259143 393.468467,335.344548 C390.942353,327.431446 386.703643,323.474148 380.756844,323.474148 C374.807043,323.474148 370.568335,327.290914 368.043723,334.918469 C365.516107,342.550507 364.253801,356.512429 364.253801,376.804235 Z M445.298079,376.804235 C445.298079,408.299664 439.999693,431.372193 429.407427,446.024811 C418.813659,460.675934 402.594297,468 380.756844,468 C359.404203,468 343.307919,460.351517 332.470995,445.050063 C321.63107,429.750104 316.212607,407.000499 316.212607,376.804235 C316.212607,345.147345 321.509492,321.934285 332.104761,307.157581 C342.697029,292.385362 358.914889,285 380.756844,285 C402.025432,285 418.099203,292.690344 428.979654,308.072529 C439.860105,323.456208 445.298079,346.36578 445.298079,376.804235 Z M529.645968,395.1899 L529.645968,374.489955 C529.645968,370.593953 529.785558,365.340479 530.073741,358.722059 C530.357422,352.108124 530.581065,348.636703 530.746171,348.312286 L529.401312,348.312286 C526.630542,354.564429 523.490535,360.409927 519.988799,365.845793 L500.185146,395.1899 L529.645968,395.1899 Z M597,431.109071 L577.319427,431.109071 L577.319427,465.56612 L529.645968,465.56612 L529.645968,431.109071 L458.378937,431.109071 L458.378937,395.79837 L532.701921,287.556471 L577.319427,287.556471 L577.319427,395.1899 L597,395.1899 L597,431.109071 Z" id="Stroke-8" stroke="#2A2A2A" stroke-width="4.902"></path>
                <path d="M627.0963,322.665276 L627.0963,306.066839 M615.537932,327.464825 L603.831072,315.727583 M610.751694,339.051704 L594.194099,339.051704 M615.537932,350.637078 L603.831072,362.37432 M627.0963,355.436626 L627.0963,372.035064 M638.654667,350.637078 L650.363027,362.37432 M643.442406,339.051704 L660,339.051704 M638.654667,327.464825 L650.363027,315.727583 M107.782699,405.313134 L107.782699,393.315768 M99.4281563,408.783484 L90.965619,400.298568 M95.9678455,417.158636 L84,417.158636 M99.4281563,425.533787 L90.965619,434.017199 M107.782699,429.002633 L107.782699,441 M116.137242,425.533787 L124.59978,434.017199 M119.597553,417.158636 L131.566899,417.158636 M116.137242,408.783484 L124.59978,400.298568 M431.647987,157.49887 L431.647987,145.5 M423.293445,160.967717 L414.830907,152.484305 M419.833134,169.342868 L407.863788,169.342868 M423.293445,177.71802 L414.830907,186.201431 M431.647987,181.186866 L431.647987,193.184233 M440.002531,177.71802 L448.465068,186.201431 M443.462843,169.342868 L455.430687,169.342868 M440.002531,160.967717 L448.465068,152.484305" id="Stroke-9" stroke="#2A2A2A" stroke-width="3.2445" stroke-linecap="round" stroke-linejoin="round"></path>
                <polygon id="Stroke-10" stroke="#2A2A2A" stroke-width="3.6285" stroke-linecap="round" stroke-linejoin="round" points="168 555 579 555 579 490.5 168 490.5"></polygon>
                <path d="M199.585934,257.579056 L199.585934,205.72018 L468.898242,205.72018 L468.898242,320.945441 L199.585934,257.579056 Z M373.97658,168.866721 L373.97658,233.79207 L552.56536,233.79207 L552.56536,263.33281 L373.97658,168.866721 Z M206.01217,264.011667 C206.01217,267.563645 203.135893,270.444276 199.585934,270.444276 C196.037474,270.444276 193.159696,267.563645 193.159696,264.011667 C193.159696,260.458187 196.037474,257.579056 199.585934,257.579056 C203.135893,257.579056 206.01217,260.458187 206.01217,264.011667 Z M380.402817,162.432609 C380.402817,165.986089 377.525039,168.866721 373.97658,168.866721 C370.42662,168.866721 367.548841,165.986089 367.548841,162.432609 C367.548841,158.880631 370.42662,156 373.97658,156 C377.525039,156 380.402817,158.880631 380.402817,162.432609 Z M558.991598,270.444276 C558.991598,273.997755 556.11382,276.876885 552.56536,276.876885 C549.0154,276.876885 546.137624,273.997755 546.137624,270.444276 C546.137624,266.892299 549.0154,264.011667 552.56536,264.011667 C556.11382,264.011667 558.991598,266.892299 558.991598,270.444276 Z M475.324479,328.445897 C475.324479,331.999376 472.448201,334.878506 468.898242,334.878506 C465.349782,334.878506 462.472004,331.999376 462.472004,328.445897 C462.472004,324.893919 465.349782,322.013287 468.898242,322.013287 C472.448201,322.013287 475.324479,324.893919 475.324479,328.445897 Z M157.70511,457.27831 L142.5,472.5 L157.70511,457.27831 Z M142.5,457.27831 L157.70511,472.5 L142.5,457.27831 Z M165.307667,236.255175 L150.102555,251.475363 L165.307667,236.255175 Z M150.102555,236.255175 L165.307667,251.475363 L150.102555,236.255175 Z M658.5,408.786679 L643.293388,424.008369 L658.5,408.786679 Z M643.293388,408.786679 L658.5,424.008369 L643.293388,408.786679 Z" id="Stroke-11" stroke="#2A2A2A" stroke-width="3.2445" stroke-linecap="round" stroke-linejoin="round"></path>
                <path d="M227.533223,150.292313 C222.652522,150.292313 218.185593,152.060636 214.716853,154.989089 C211.174116,144.252949 201.134853,136.5 189.281939,136.5 C176.011024,136.5 165.021897,146.214374 162.874509,158.960594 C161.474629,158.557666 160.003776,158.328073 158.475536,158.328073 C149.651918,158.328073 142.5,165.530607 142.5,174.413276 C142.5,182.585879 148.558593,189.320104 156.396104,190.347952 L156.396104,190.5 L227.533223,190.5 C238.560102,190.5 247.5,181.498733 247.5,170.396157 C247.5,159.29358 238.560102,150.292313 227.533223,150.292313 Z" id="Stroke-12" stroke="#2A2A2A" stroke-width="3.3915" stroke-linecap="round" stroke-linejoin="round"></path>
                <path d="M595.181384,251.3658 C598.701689,251.3658 601.923636,252.630838 604.424431,254.725263 C606.980702,247.045209 614.220714,241.5 622.771096,241.5 C632.340988,241.5 640.267671,248.449476 641.817924,257.565235 C642.82544,257.277795 643.888427,257.113116 644.988897,257.113116 C651.353332,257.113116 656.512349,262.26459 656.512349,268.619722 C656.512349,274.465846 652.143451,279.281973 646.489674,280.017043 L646.489674,280.12633 L595.181384,280.12633 C587.227713,280.12633 580.77932,273.687361 580.77932,265.745316 C580.77932,257.804769 587.227713,251.3658 595.181384,251.3658 Z M665.923315,523.380438 C662.971238,523.380438 660.268039,524.441872 658.170549,526.197955 C656.028081,519.757489 649.954506,515.10604 642.784959,515.10604 C634.757824,515.10604 628.111525,520.934199 626.811651,528.57982 C625.966058,528.338788 625.075487,528.201057 624.150432,528.201057 C618.814502,528.201057 614.487587,532.521649 614.487587,537.851277 C614.487587,542.752738 618.151821,546.791878 622.892538,547.408677 L622.892538,547.5 L665.923315,547.5 C672.593604,547.5 678,542.101506 678,535.440967 C678,528.78043 672.593604,523.380438 665.923315,523.380438 Z M81.900565,497.931465 C85.4208697,497.931465 88.6428181,499.196502 91.1451132,501.290927 C93.6998829,493.610872 100.941396,488.065664 109.490279,488.065664 C119.061669,488.065664 126.988352,495.013642 128.537106,504.130899 C129.54612,503.841961 130.607609,503.678779 131.709578,503.678779 C138.074013,503.678779 143.233029,508.830255 143.233029,515.185387 C143.233029,521.03151 138.862634,525.847636 133.208856,526.582707 L133.208856,526.690497 L81.900565,526.690497 C73.9468953,526.690497 67.5,520.253025 67.5,512.310981 C67.5,504.368937 73.9468953,497.931465 81.900565,497.931465 Z" id="Stroke-13" stroke="#2A2A2A" stroke-width="3.2445" stroke-linecap="round" stroke-linejoin="round"></path>
                <path d="M247.5,140.150062 C247.5,140.150062 338.126475,66.505385 461.260926,100.433616 C590.607577,136.073055 616.5,228 616.5,228" id="Stroke-14" stroke="#2A2A2A" stroke-width="3.2445" stroke-linecap="round" stroke-linejoin="round" stroke-dasharray="4.901999831199646,11.43600010871887"></path>
                <path d="M109.5,355.5 C74.1638809,360.943245 56.4008155,435.430626 96.1479174,465" id="Stroke-15" stroke="#2A2A2A" stroke-width="3.0255" stroke-linecap="round" stroke-linejoin="round" stroke-dasharray="4.570499897003174,10.66350030899048"></path>
                <path d="M552,571.383033 C552,571.383033 612.48603,597.656568 639,561" id="Stroke-16" stroke="#2A2A2A" stroke-width="3.2445" stroke-linecap="round" stroke-linejoin="round" stroke-dasharray="4.901999831199646,11.43600010871887"></path>
                <path d="M265.682876,271.763185 L265.682876,234 M256.5,271.763185 L256.5,252.945658 M405.507833,280.5 L405.507833,252.881592 M395.076159,278.144457 L395.076159,266.690052 M385.821238,278.144457 L385.821238,259.000641 M274.510023,271.763185 L274.510023,252.881592 M526.672852,277.019577 L526.672852,268.573295 M517.489977,277.019577 L517.489977,256.44396 M535.5,277.019577 L535.5,262.323133" id="Stroke-17" stroke="#2A2A2A" stroke-width="3.2445" stroke-linecap="round" stroke-linejoin="round"></path>
                <text id="meh." fill="#2A2A2A" font-family="OpenSans-Regular, Open Sans" font-size="55.77825" font-weight="normal">
                    <tspan x="314.87287" y="538.5">meh.</tspan>
                </text>
            </g>
        </g>
    </g>
</svg>