<?xml version="1.0" encoding="UTF-8"?>
<svg width="513px" height="712px" viewBox="0 0 513 712" version="1.1" xmlns="http://www.w3.org/2000/svg" xmlns:xlink="http://www.w3.org/1999/xlink">
    <!-- Generator: Sketch 63.1 (92452) - https://sketch.com -->
    <title>Artboard</title>
    <desc>Created with Sketch.</desc>
    <defs>
        <path d="M156.862,19.464 C160.234,22.06 163.475,24.827 168,28.511 C156.606,38.435 145.991,48.407 134.44,57.14 C132.058,58.94 125.92,56.811 121.958,55.314 C95.846,45.442 75.95,50.128 60.512,70.188 C48.223,86.149 47.291,106.951 58.125,123.496 C70.458,142.327 88.559,150.205 108.973,145.255 C117.519,143.182 128.157,136.037 133.891,138.958 C145.545,144.891 154.509,156.106 164.71,165.259 C142.909,187.361 122.616,208.263 101.751,228.579 C99.692,230.588 92.397,230.76 90.483,228.841 C66.344,204.642 41.013,181.321 19.436,154.95 C-10.318,118.588 -4.327,62.172 29.854,28.46 C63.89,-5.111 119.798,-9.083 156.862,19.464 Z" id="path-1"></path>
    </defs>
    <g id="Artboard" stroke="none" stroke-width="1" fill="none" fill-rule="evenodd">
        <g id="TopBar/Work" transform="translate(-700.000000, -879.000000)">
            <rect id="Rectangle" fill="#FFFFFF" fill-rule="evenodd" x="0" y="1" width="1441" height="179"></rect>
            <g id="Logo-/-minified-/-black" transform="translate(48.000000, 59.000000)" fill="#2A2A2A" fill-rule="evenodd" stroke-width="1">
                <g id="Group">
                    <path d="M15.2263528,69.5353585 C13.8046444,68.529072 13.2610582,66.9148446 13.5955778,64.6926285 C13.9300974,62.4704124 14.6200338,60.1224457 15.6654076,57.6486577 C16.7107814,55.17487 17.9024897,52.8269031 19.2405682,50.604687 C20.5786467,48.3824708 21.6240048,46.8101716 22.3766739,45.8877422 C23.8820122,43.7913119 25.4918638,41.7787689 27.2062768,39.850053 C28.9206899,37.921337 30.739613,36.076506 32.6631008,34.3155045 C34.0848092,32.9737891 35.6737536,31.7159497 37.4299816,30.5419487 C39.1862096,29.3679477 40.9424113,28.3407123 42.6986393,27.4602115 C44.4548674,26.5797107 46.1483475,25.9088631 47.7791304,25.4476484 C49.4099136,24.9864337 50.8106935,24.8816138 51.9815123,25.1331854 C55.6612283,25.8040432 57.7101301,27.6908022 58.1282797,30.7935191 C58.5464293,33.896236 57.4174423,38.0051779 54.7412854,43.120468 C54.0722462,44.294469 53.4241242,45.4055604 52.7968999,46.4537756 C52.1696755,47.5019908 51.6260894,48.3615143 51.1661247,49.032372 C50.7061603,49.7032297 50.3925528,50.1854015 50.2252932,50.4789017 C50.0580332,50.772402 50.141662,50.793366 50.4761816,50.5417943 C52.5669293,48.86465 54.594924,47.2923509 56.5602268,45.8248496 C58.5255296,44.3573484 60.1353809,43.204329 61.3898297,42.3657568 C62.0588689,41.9464708 62.7488051,41.569119 63.4596595,41.2336901 C64.1705135,40.8982612 64.8604501,40.5628374 65.5294893,40.2274086 C65.8640089,40.0596941 66.3448736,40.0387301 66.972098,40.164516 C67.599322,40.2903018 68.1847226,40.5628336 68.728317,40.9821197 C69.2719114,41.4014058 69.6900548,41.9464695 69.9827592,42.6173272 C70.275464,43.2881849 70.2545569,44.0848165 69.9200373,45.0072459 C69.334628,46.6005329 68.2474553,48.6340399 66.6584873,51.1078277 C65.0695192,53.5816155 63.3133174,56.1601863 61.3898297,58.8436171 C63.1460577,56.914901 65.0486094,54.9652502 67.0975422,52.9946056 C69.1464747,51.0239611 71.4671697,48.9904541 74.0596968,46.8940238 C76.3177044,45.1330223 78.0948131,43.749399 79.3910767,42.7431124 C80.6873403,41.7368258 81.9208628,40.8982663 83.0916813,40.2274086 C83.7607208,39.7242653 84.450657,39.3049855 85.1615114,38.9695566 C85.8723655,38.6341278 86.5623017,38.2987039 87.2313412,37.9632751 C87.5658608,37.7955607 88.0885397,37.7955607 88.7993938,37.9632751 C89.5102481,38.1309895 90.1792772,38.4244854 90.8065016,38.8437714 C91.433726,39.2630575 91.9145907,39.8081212 92.2491103,40.478979 C92.5836299,41.1498366 92.5836299,41.9464682 92.2491103,42.8688976 C91.7473307,43.8751842 90.8901372,45.3636274 89.6775036,47.3342719 C88.46487,49.3049165 87.0431827,51.5061353 85.4123998,53.9379946 C83.7816166,56.3698539 82.0463219,58.9274603 80.2064642,61.6108914 C78.3666062,64.2943222 76.6313119,66.9148208 75.0005287,69.4724657 C73.3697454,72.0301107 71.9062439,74.3990417 70.6099806,76.5793293 C69.313717,78.7596167 51.3061904,106.907874 50.7207808,108.333446 C50.3862612,109.172019 49.9472108,110.450822 49.4036166,112.169895 C48.8600222,113.888967 48.5673219,115.503195 48.5255068,117.012624 C48.483692,118.522054 48.8809279,119.696038 49.7172271,120.53461 C50.5535262,121.373182 52.2260993,121.331254 54.7349962,120.408825 C55.2367757,120.24111 55.4249401,120.24111 55.2994953,120.408825 C55.1740505,120.576539 54.9231644,120.786179 54.54683,121.037751 C54.1704952,121.289322 53.7523522,121.561854 53.2923878,121.855354 C52.8324231,122.148855 52.4770014,122.337531 52.2261118,122.421388 C51.3061826,122.756817 50.428082,122.945493 49.5917828,122.987421 C48.7554837,123.02935 48.0864546,122.966458 47.5846753,122.798743 C45.4102977,122.211743 44.1140535,120.974868 43.6959039,119.08808 C43.2777546,117.201293 43.340476,115.042002 43.8840704,112.610143 C44.4276648,110.178284 45.2639511,107.725497 46.3929551,105.251709 C47.5219587,102.777921 65.6967427,74.3152047 66.7839315,72.5542032 C68.2892699,70.0384867 70.0036571,67.334132 71.9271448,64.4410581 C73.8506328,61.5479843 75.7113702,58.7388096 77.5094131,56.0134503 C79.3074562,53.2880908 80.9800292,50.7514481 82.5271825,48.4034461 C84.0743357,46.0554441 85.2242295,44.1267571 85.9768987,42.6173272 C86.6459379,41.2756118 86.6041237,40.772476 85.8514545,41.1079049 C85.0987853,41.4433338 83.9279844,42.1980374 82.339016,43.3720384 C79.4955992,45.3846115 76.9449255,47.3342625 74.686918,49.2210498 C72.4289107,51.1078372 70.2963801,53.0365242 68.2892621,55.0071686 C66.2821445,56.9778131 64.3377786,59.0742121 62.4561054,61.2964283 C60.5744326,63.5186444 58.5882521,65.9714311 56.4975045,68.6548622 C56.1629849,69.074148 55.6612131,69.7449959 54.9921739,70.6674251 C54.3231346,71.5898544 53.7168269,72.5332341 53.1732325,73.4975919 C52.6296381,74.4619499 52.2324019,75.3424376 51.9815123,76.139081 C51.7306226,76.9357245 51.8560657,77.4178962 52.3578449,77.5856108 C52.6087346,77.6694681 52.5460132,77.7533238 52.1696788,77.8371811 C51.793344,77.9210384 51.2706651,77.9629663 50.6016259,77.9629663 C49.9325866,77.9629663 49.221743,77.8791105 48.4690738,77.711396 C47.7164046,77.5436814 47.1100969,77.2082576 46.6501325,76.7051145 C46.190168,76.2019711 45.9601894,75.5311235 45.9601894,74.6925513 C45.9601894,73.8539793 46.3783324,72.7638516 47.2146316,71.4221362 C47.3818913,71.1705647 48.113642,70.0385094 49.4099056,68.025936 C50.7061692,66.0133629 52.1905775,63.7073241 53.8631759,61.1077507 C55.5357739,58.5081769 57.208347,55.8876783 58.880945,53.246176 C60.553543,50.6046737 61.8916015,48.5292388 62.8951603,47.019809 C63.22968,46.4328085 63.606009,45.8248528 64.0241583,45.1959237 C64.4423079,44.5669945 64.693194,44.0638588 64.7768239,43.6865013 C64.8604536,43.3091439 64.6513821,43.18336 64.1496025,43.3091458 C63.6478233,43.4349316 62.7279081,44.0009593 61.3898297,45.0072459 C59.3827118,46.4328185 57.5428814,47.7954778 55.8702834,49.0952646 C54.1976854,50.3950514 52.1905978,52.1350626 49.8489605,54.3153501 C49.0962913,55.0700652 48.0927474,56.2230844 46.8382989,57.7744429 C45.5838502,59.3258013 44.2876062,61.0029205 42.9495277,62.8058508 C41.6114492,64.6087808 40.3152052,66.3907197 39.0607566,68.1517212 C37.806308,69.9127227 36.8027642,71.3802021 36.050095,72.5542032 C35.3810558,73.644347 34.9001911,74.5038704 34.6074864,75.1327996 C34.3147817,75.7617288 34.1475244,76.2648644 34.1057095,76.6422218 C34.0638945,77.0195794 34.1057088,77.292111 34.2311537,77.4598256 C34.3565986,77.6275399 34.5029487,77.7533238 34.6702085,77.8371811 C34.9210982,78.0048957 34.4611406,78.1306794 33.290322,78.2145367 C32.1195033,78.298394 30.9905165,78.17261 29.9033278,77.8371811 C28.3979895,77.3340377 27.7707746,76.3068025 28.0216643,74.755444 C28.272554,73.2040856 29.4433551,70.8351546 31.5341027,67.6485805 C32.6212915,65.9714362 34.231143,63.6234695 36.3637056,60.6046096 C38.4962682,57.58575 40.6915203,54.3572957 42.9495277,50.9191499 C45.2075351,47.4810041 47.2982515,44.0429099 49.2217391,40.6047641 C51.1452271,37.1666183 52.441471,34.1478039 53.1105103,31.5482303 C53.5286598,29.9549432 53.6122886,28.8019238 53.3613987,28.0891375 C53.1105091,27.3763511 52.6296444,26.9780353 51.9187903,26.8941781 C51.207936,26.8103209 50.2671137,26.9570688 49.0962949,27.3344263 C47.9254764,27.7117838 46.6710464,28.2358835 45.332968,28.9067412 C44.8311887,29.1583128 43.8903665,29.7662685 42.5104729,30.7306265 C41.1305795,31.6949845 39.4789136,33.1414997 37.5554258,35.0702157 C35.631938,36.9989316 33.5203146,39.4517183 31.2204922,42.4286494 C28.9206698,45.4055805 26.5999747,49.0742786 24.2583374,53.4348538 C22.00033,57.5438574 20.7040859,60.5417076 20.3695662,62.4284949 C20.0350466,64.3152825 20.1604896,65.5102297 20.7458989,66.0133731 C21.3313083,66.5165162 22.1466876,66.4745883 23.1920614,65.8875879 C24.2374352,65.3005875 25.0528146,64.5458839 25.6382239,63.6234543 C26.0563735,63.0364539 26.0772806,63.2251297 25.7009461,64.1894878 C25.3246115,65.1538458 24.6346751,66.2439732 23.6311162,67.4599028 C22.6275574,68.6758324 21.414942,69.6401758 19.9932335,70.3529623 C18.5715252,71.0657485 16.9825808,70.7932166 15.2263528,69.5353585 Z" id="Mayå-path"></path>
                    <path d="M52,7 C24.3857625,7 2,29.6096201 2,57.5 C2,85.3903799 24.3857625,108 52,108 C79.6142375,108 102,85.3903799 102,57.5 C102,29.6096201 79.6142375,7 52,7 Z M53.5,0 C83.0472341,0 107,24.4004811 107,54.5 C107,84.5995189 83.0472341,109 53.5,109 C23.9527659,109 0,84.5995189 0,54.5 C0,24.4004811 23.9527659,0 53.5,0 Z" id="Oval" fill-rule="nonzero"></path>
                </g>
            </g>
            <line x1="186.5" y1="0.5" x2="186.5" y2="1025.5" id="Line" stroke="#D8D8D8" stroke-width="1" stroke-linecap="square"></line>
            <text id="Work" font-family="OpenSans-SemiBold, Open Sans" font-size="24" font-weight="500" fill="#DB3056">
                <tspan x="1075.28516" y="110">Work</tspan>
            </text>
            <text id="About" font-family="OpenSans-Regular, Open Sans" font-size="24" font-weight="normal" fill="#2A2A2A">
                <tspan x="1177.20312" y="110">About</tspan>
            </text>
            <text id="Contact" font-family="OpenSans-Regular, Open Sans" font-size="24" font-weight="normal" fill="#2A2A2A">
                <tspan x="1285" y="110">Contact</tspan>
            </text>
        </g>
        <g id="Group-67" transform="translate(172.000000, 241.000000)">
            <mask id="mask-2" fill="white">
                <use xlink:href="#path-1"></use>
            </mask>
            <g id="Clip-66"></g>
            <polygon id="Fill-65" fill="#EE2B47" mask="url(#mask-2)" points="-4.723 235.187 173 235.187 173 -4.586 -4.723 -4.586"></polygon>
        </g>
    </g>
</svg>