<?xml version="1.0" encoding="UTF-8"?>
<svg width="549px" height="164px" viewBox="0 0 549 164" version="1.1" xmlns="http://www.w3.org/2000/svg" xmlns:xlink="http://www.w3.org/1999/xlink">
    <!-- Generator: Sketch 63.1 (92452) - https://sketch.com -->
    <title>Assets/Skills</title>
    <desc>Created with Sketch.</desc>
    <g id="Assets/Skills" stroke="none" stroke-width="1" fill="none" fill-rule="evenodd">
        <line x1="458" y1="82.5" x2="360" y2="82.5" id="Line-4-Copy" stroke="#979797" stroke-linecap="square"></line>
        <line x1="204.5" y1="82.5" x2="106.5" y2="82.5" id="Line-4" stroke="#979797" stroke-linecap="square"></line>
        <circle id="Oval-Copy" fill="#636363" cx="498" cy="82" r="50"></circle>
        <path d="M480.911133,90.1601562 C482.435547,90.1601562 483.717285,89.965332 484.756348,89.5756836 L484.756348,89.5756836 L484.756348,88.0478516 C483.416504,88.4238281 482.223633,88.6118164 481.177734,88.6118164 C479.475586,88.6118164 478.164795,88.0769043 477.245361,87.0070801 C476.325928,85.9372559 475.866211,84.4213867 475.866211,82.4594727 C475.866211,80.5522461 476.343018,79.0500488 477.296631,77.9528809 C478.250244,76.8557129 479.550781,76.3071289 481.198242,76.3071289 C482.333008,76.3071289 483.467773,76.5737305 484.602539,77.1069336 L484.602539,77.1069336 L485.34082,75.6098633 C484.165039,75.0356445 482.791016,74.7485352 481.21875,74.7485352 C479.742188,74.7485352 478.45874,75.0629883 477.368408,75.6918945 C476.278076,76.3208008 475.444092,77.2163086 474.866455,78.378418 C474.288818,79.5405273 474,80.894043 474,82.4389648 C474,84.9067383 474.599854,86.8105469 475.799561,88.1503906 C476.999268,89.4902344 478.703125,90.1601562 480.911133,90.1601562 Z M492.262207,90.1601562 C493.88916,90.1601562 495.164062,89.645752 496.086914,88.6169434 C497.009766,87.5881348 497.471191,86.1577148 497.471191,84.3256836 C497.471191,82.5415039 497.008057,81.1264648 496.081787,80.0805664 C495.155518,79.034668 493.90625,78.5117188 492.333984,78.5117188 C490.707031,78.5117188 489.435547,79.0227051 488.519531,80.0446777 C487.603516,81.0666504 487.145508,82.4936523 487.145508,84.3256836 C487.145508,85.5083008 487.357422,86.5405273 487.78125,87.4223633 C488.205078,88.3041992 488.806641,88.980957 489.585938,89.4526367 C490.365234,89.9243164 491.257324,90.1601562 492.262207,90.1601562 Z M492.303223,88.7348633 C491.188965,88.7348633 490.344727,88.3588867 489.770508,87.6069336 C489.196289,86.8549805 488.90918,85.7612305 488.90918,84.3256836 C488.90918,82.8764648 489.192871,81.7861328 489.760254,81.0546875 C490.327637,80.3232422 491.168457,79.9575195 492.282715,79.9575195 C493.410645,79.9575195 494.263428,80.3283691 494.841064,81.0700684 C495.418701,81.8117676 495.70752,82.8969727 495.70752,84.3256836 C495.70752,85.7680664 495.418701,86.8635254 494.841064,87.6120605 C494.263428,88.3605957 493.41748,88.7348633 492.303223,88.7348633 Z M504.484863,90.1601562 C506.050293,90.1601562 507.226074,89.5893555 508.012207,88.4477539 L508.012207,88.4477539 L508.104492,88.4477539 L508.330078,89.9550781 L509.714355,89.9550781 L509.714355,74 L508.012207,74 L508.012207,78.5732422 L508.053223,79.362793 L508.125,80.1728516 L507.991699,80.1728516 C507.178223,79.0654297 506.009277,78.5117188 504.484863,78.5117188 C503.021973,78.5117188 501.880371,79.0244141 501.060059,80.0498047 C500.239746,81.0751953 499.82959,82.5141602 499.82959,84.3666992 C499.82959,86.2192383 500.238037,87.6479492 501.054932,88.652832 C501.871826,89.6577148 503.015137,90.1601562 504.484863,90.1601562 Z M504.700195,88.7348633 C503.681641,88.7348633 502.90918,88.3691406 502.382812,87.6376953 C501.856445,86.90625 501.593262,85.8227539 501.593262,84.387207 C501.593262,82.972168 501.858154,81.876709 502.387939,81.1008301 C502.917725,80.3249512 503.681641,79.9370117 504.679688,79.9370117 C505.841797,79.9370117 506.687744,80.2770996 507.217529,80.9572754 C507.747314,81.6374512 508.012207,82.7739258 508.012207,84.3666992 L508.012207,84.3666992 L508.012207,84.7255859 C508.012207,86.1337891 507.750732,87.1540527 507.227783,87.786377 C506.704834,88.4187012 505.862305,88.7348633 504.700195,88.7348633 Z M518.071289,90.1601562 C518.830078,90.1601562 519.477783,90.1037598 520.014404,89.9909668 C520.551025,89.8781738 521.120117,89.6918945 521.72168,89.4321289 L521.72168,89.4321289 L521.72168,87.9145508 C520.539062,88.4204102 519.342773,88.6733398 518.132812,88.6733398 C516.984375,88.6733398 516.093994,88.331543 515.46167,87.6479492 C514.829346,86.9643555 514.496094,85.9628906 514.461914,84.6435547 L514.461914,84.6435547 L522.203613,84.6435547 L522.203613,83.5668945 C522.203613,82.0493164 521.793457,80.8273926 520.973145,79.901123 C520.152832,78.9748535 519.038574,78.5117188 517.630371,78.5117188 C516.126465,78.5117188 514.928467,79.0449219 514.036377,80.1113281 C513.144287,81.1777344 512.698242,82.6166992 512.698242,84.4282227 C512.698242,86.2260742 513.178467,87.6308594 514.138916,88.6425781 C515.099365,89.6542969 516.410156,90.1601562 518.071289,90.1601562 Z M520.378418,83.2592773 L514.50293,83.2592773 C514.598633,82.2202148 514.914795,81.4067383 515.451416,80.8188477 C515.988037,80.230957 516.70752,79.9370117 517.609863,79.9370117 C518.498535,79.9370117 519.182129,80.2224121 519.660645,80.7932129 C520.13916,81.3640137 520.378418,82.1860352 520.378418,83.2592773 L520.378418,83.2592773 Z" id="Code" fill="#FFFFFF" fill-rule="nonzero"></path>
        <circle id="Oval" fill="#2A2A2A" cx="63" cy="82" r="62"></circle>
        <path d="M47.5368652,75.1962891 C49.3415527,75.1962891 50.7600098,74.7075195 51.7922363,73.7299805 C52.8244629,72.7524414 53.3405762,71.4091797 53.3405762,69.7001953 L53.3405762,69.7001953 L53.3405762,60 L51.5974121,60 L51.5974121,69.7617188 C51.5974121,71.0195312 51.2556152,71.9851074 50.5720215,72.6584473 C49.8884277,73.3317871 48.9143066,73.668457 47.6496582,73.668457 C46.3234863,73.668457 45.3186035,73.3334961 44.6350098,72.6635742 C43.951416,71.9936523 43.6096191,71.0332031 43.6096191,69.7822266 L43.6096191,69.7822266 L43.6096191,60 L41.8664551,60 L41.8664551,69.6591797 C41.8664551,71.3818359 42.3603516,72.7353516 43.3481445,73.7197266 C44.3359375,74.7041016 45.7321777,75.1962891 47.5368652,75.1962891 Z M59.8518066,75.1962891 C61.2600098,75.1962891 62.3537598,74.9125977 63.1330566,74.3452148 C63.9123535,73.777832 64.302002,72.9711914 64.302002,71.925293 C64.302002,71.1801758 64.0678711,70.5615234 63.5996094,70.0693359 C63.1313477,69.5771484 62.2307129,69.0883789 60.8977051,68.6030273 C59.927002,68.2407227 59.270752,67.9638672 58.9289551,67.7724609 C58.5871582,67.5810547 58.3393555,67.3793945 58.1855469,67.1674805 C58.0317383,66.9555664 57.954834,66.6992188 57.954834,66.3984375 C57.954834,65.9541016 58.1599121,65.6054688 58.5700684,65.3525391 C58.9802246,65.0996094 59.588623,64.9731445 60.3952637,64.9731445 C61.3112793,64.9731445 62.333252,65.2055664 63.4611816,65.6704102 L63.4611816,65.6704102 L64.0661621,64.2861328 C62.9108887,63.7939453 61.7282715,63.5478516 60.5183105,63.5478516 C59.2194824,63.5478516 58.1975098,63.8127441 57.4523926,64.3425293 C56.7072754,64.8723145 56.3347168,65.5952148 56.3347168,66.5112305 C56.3347168,67.0239258 56.4423828,67.4648438 56.6577148,67.8339844 C56.8730469,68.203125 57.2011719,68.532959 57.6420898,68.8234863 C58.0830078,69.1140137 58.826416,69.4541016 59.8723145,69.84375 C60.9729004,70.2675781 61.7128906,70.6350098 62.0922852,70.9460449 C62.4716797,71.2570801 62.661377,71.6313477 62.661377,72.0688477 C62.661377,72.6499023 62.4221191,73.0822754 61.9436035,73.3659668 C61.4650879,73.6496582 60.7814941,73.7915039 59.8928223,73.7915039 C59.3186035,73.7915039 58.722168,73.7128906 58.1035156,73.5556641 C57.4848633,73.3984375 56.9055176,73.1831055 56.3654785,72.909668 L56.3654785,72.909668 L56.3654785,74.4887695 C57.1994629,74.9604492 58.3615723,75.1962891 59.8518066,75.1962891 Z M71.8181152,75.1962891 C72.5769043,75.1962891 73.2246094,75.1398926 73.7612305,75.0270996 C74.2978516,74.9143066 74.8669434,74.7280273 75.4685059,74.4682617 L75.4685059,74.4682617 L75.4685059,72.9506836 C74.2858887,73.456543 73.0895996,73.7094727 71.8796387,73.7094727 C70.7312012,73.7094727 69.8408203,73.3676758 69.2084961,72.684082 C68.5761719,72.0004883 68.2429199,70.9990234 68.2087402,69.6796875 L68.2087402,69.6796875 L75.9504395,69.6796875 L75.9504395,68.6030273 C75.9504395,67.0854492 75.5402832,65.8635254 74.7199707,64.9372559 C73.8996582,64.0109863 72.7854004,63.5478516 71.3771973,63.5478516 C69.873291,63.5478516 68.675293,64.0810547 67.7832031,65.1474609 C66.8911133,66.2138672 66.4450684,67.652832 66.4450684,69.4643555 C66.4450684,71.262207 66.925293,72.6669922 67.8857422,73.6787109 C68.8461914,74.6904297 70.1569824,75.1962891 71.8181152,75.1962891 Z M74.1252441,68.2954102 L68.2497559,68.2954102 C68.345459,67.2563477 68.6616211,66.4428711 69.1982422,65.8549805 C69.7348633,65.2670898 70.4543457,64.9731445 71.3566895,64.9731445 C72.2453613,64.9731445 72.9289551,65.2585449 73.4074707,65.8293457 C73.8859863,66.4001465 74.1252441,67.222168 74.1252441,68.2954102 L74.1252441,68.2954102 Z M80.5544434,74.9912109 L80.5544434,68.9619141 C80.5544434,67.8613281 80.8774414,66.9418945 81.5234375,66.2036133 C82.1694336,65.465332 82.9470215,65.0961914 83.8562012,65.0961914 C84.2116699,65.0961914 84.6218262,65.1474609 85.0866699,65.25 L85.0866699,65.25 L85.3225098,63.6708984 C84.9260254,63.5888672 84.4782715,63.5478516 83.979248,63.5478516 C83.2751465,63.5478516 82.6291504,63.7460938 82.0412598,64.1425781 C81.4533691,64.5390625 80.9509277,65.1030273 80.5339355,65.8344727 L80.5339355,65.8344727 L80.4519043,65.8344727 L80.2570801,63.7529297 L78.8522949,63.7529297 L78.8522949,74.9912109 L80.5544434,74.9912109 Z M21.7431641,102.991211 L21.7431641,96.7568359 L24.8706055,96.7568359 L28.5004883,102.991211 L30.5615234,102.991211 L26.4907227,96.2543945 C28.5004883,95.5571289 29.5053711,94.2172852 29.5053711,92.2348633 C29.5053711,90.8198242 29.0661621,89.7602539 28.1877441,89.0561523 C27.3093262,88.3520508 25.9506836,88 24.1118164,88 L24.1118164,88 L20,88 L20,102.991211 L21.7431641,102.991211 Z M24.1323242,95.2597656 L21.7431641,95.2597656 L21.7431641,89.527832 L24.0092773,89.527832 C25.3012695,89.527832 26.239502,89.746582 26.8239746,90.184082 C27.4084473,90.621582 27.7006836,91.3359375 27.7006836,92.3271484 C27.7006836,93.3046875 27.4135742,94.0378418 26.8393555,94.5266113 C26.2651367,95.0153809 25.362793,95.2597656 24.1323242,95.2597656 L24.1323242,95.2597656 Z M37.4726562,103.196289 C38.2314453,103.196289 38.8791504,103.139893 39.4157715,103.0271 C39.9523926,102.914307 40.5214844,102.728027 41.1230469,102.468262 L41.1230469,102.468262 L41.1230469,100.950684 C39.9404297,101.456543 38.7441406,101.709473 37.5341797,101.709473 C36.3857422,101.709473 35.4953613,101.367676 34.8630371,100.684082 C34.2307129,100.000488 33.8974609,98.9990234 33.8632812,97.6796875 L33.8632812,97.6796875 L41.6049805,97.6796875 L41.6049805,96.6030273 C41.6049805,95.0854492 41.1948242,93.8635254 40.3745117,92.9372559 C39.5541992,92.0109863 38.4399414,91.5478516 37.0317383,91.5478516 C35.527832,91.5478516 34.329834,92.0810547 33.4377441,93.1474609 C32.5456543,94.2138672 32.0996094,95.652832 32.0996094,97.4643555 C32.0996094,99.262207 32.579834,100.666992 33.5402832,101.678711 C34.5007324,102.69043 35.8115234,103.196289 37.4726562,103.196289 Z M39.7797852,96.2954102 L33.9042969,96.2954102 C34,95.2563477 34.3161621,94.4428711 34.8527832,93.8549805 C35.3894043,93.2670898 36.1088867,92.9731445 37.0112305,92.9731445 C37.8999023,92.9731445 38.5834961,93.2585449 39.0620117,93.8293457 C39.5405273,94.4001465 39.7797852,95.222168 39.7797852,96.2954102 L39.7797852,96.2954102 Z M47.3061523,103.196289 C48.7143555,103.196289 49.8081055,102.912598 50.5874023,102.345215 C51.3666992,101.777832 51.7563477,100.971191 51.7563477,99.925293 C51.7563477,99.1801758 51.5222168,98.5615234 51.0539551,98.0693359 C50.5856934,97.5771484 49.6850586,97.0883789 48.3520508,96.6030273 C47.3813477,96.2407227 46.7250977,95.9638672 46.3833008,95.7724609 C46.0415039,95.5810547 45.7937012,95.3793945 45.6398926,95.1674805 C45.486084,94.9555664 45.4091797,94.6992188 45.4091797,94.3984375 C45.4091797,93.9541016 45.6142578,93.6054688 46.0244141,93.3525391 C46.4345703,93.0996094 47.0429688,92.9731445 47.8496094,92.9731445 C48.765625,92.9731445 49.7875977,93.2055664 50.9155273,93.6704102 L50.9155273,93.6704102 L51.5205078,92.2861328 C50.3652344,91.7939453 49.1826172,91.5478516 47.9726562,91.5478516 C46.6738281,91.5478516 45.6518555,91.8127441 44.9067383,92.3425293 C44.1616211,92.8723145 43.7890625,93.5952148 43.7890625,94.5112305 C43.7890625,95.0239258 43.8967285,95.4648438 44.1120605,95.8339844 C44.3273926,96.203125 44.6555176,96.532959 45.0964355,96.8234863 C45.5373535,97.1140137 46.2807617,97.4541016 47.3266602,97.84375 C48.4272461,98.2675781 49.1672363,98.6350098 49.5466309,98.9460449 C49.9260254,99.2570801 50.1157227,99.6313477 50.1157227,100.068848 C50.1157227,100.649902 49.8764648,101.082275 49.3979492,101.365967 C48.9194336,101.649658 48.2358398,101.791504 47.347168,101.791504 C46.7729492,101.791504 46.1765137,101.712891 45.5578613,101.555664 C44.939209,101.398438 44.3598633,101.183105 43.8198242,100.909668 L43.8198242,100.909668 L43.8198242,102.48877 C44.6538086,102.960449 45.815918,103.196289 47.3061523,103.196289 Z M59.2724609,103.196289 C60.03125,103.196289 60.6789551,103.139893 61.2155762,103.0271 C61.7521973,102.914307 62.3212891,102.728027 62.9228516,102.468262 L62.9228516,102.468262 L62.9228516,100.950684 C61.7402344,101.456543 60.5439453,101.709473 59.3339844,101.709473 C58.1855469,101.709473 57.295166,101.367676 56.6628418,100.684082 C56.0305176,100.000488 55.6972656,98.9990234 55.6630859,97.6796875 L55.6630859,97.6796875 L63.4047852,97.6796875 L63.4047852,96.6030273 C63.4047852,95.0854492 62.9946289,93.8635254 62.1743164,92.9372559 C61.3540039,92.0109863 60.2397461,91.5478516 58.831543,91.5478516 C57.3276367,91.5478516 56.1296387,92.0810547 55.2375488,93.1474609 C54.345459,94.2138672 53.8994141,95.652832 53.8994141,97.4643555 C53.8994141,99.262207 54.3796387,100.666992 55.3400879,101.678711 C56.3005371,102.69043 57.6113281,103.196289 59.2724609,103.196289 Z M61.5795898,96.2954102 L55.7041016,96.2954102 C55.7998047,95.2563477 56.1159668,94.4428711 56.6525879,93.8549805 C57.189209,93.2670898 57.9086914,92.9731445 58.8110352,92.9731445 C59.699707,92.9731445 60.3833008,93.2585449 60.8618164,93.8293457 C61.340332,94.4001465 61.5795898,95.222168 61.5795898,96.2954102 L61.5795898,96.2954102 Z M69.0341797,103.196289 C69.8681641,103.196289 70.5637207,103.071533 71.1208496,102.822021 C71.6779785,102.57251 72.2368164,102.095703 72.7973633,101.391602 L72.7973633,101.391602 L72.8793945,101.391602 L73.2177734,102.991211 L74.4790039,102.991211 L74.4790039,95.3212891 C74.4790039,94.0087891 74.1560059,93.0551758 73.5100098,92.4604492 C72.8640137,91.8657227 71.8710938,91.5683594 70.53125,91.5683594 C69.8681641,91.5683594 69.2067871,91.6538086 68.5471191,91.824707 C67.8874512,91.9956055 67.2807617,92.2314453 66.7270508,92.5322266 L66.7270508,92.5322266 L67.25,93.8344727 C68.4326172,93.2602539 69.4921875,92.9731445 70.4287109,92.9731445 C71.2626953,92.9731445 71.8693848,93.1833496 72.2487793,93.6037598 C72.6281738,94.0241699 72.8178711,94.675293 72.8178711,95.5571289 L72.8178711,95.5571289 L72.8178711,96.2543945 L70.9106445,96.315918 C67.2807617,96.425293 65.4658203,97.6147461 65.4658203,99.8842773 C65.4658203,100.943848 65.7819824,101.760742 66.4143066,102.334961 C67.0466309,102.90918 67.9199219,103.196289 69.0341797,103.196289 Z M69.3725586,101.791504 C68.7026367,101.791504 68.1813965,101.630859 67.8088379,101.30957 C67.4362793,100.988281 67.25,100.52002 67.25,99.9047852 C67.25,99.1186523 67.5490723,98.5393066 68.1472168,98.166748 C68.7453613,97.7941895 69.7211914,97.5839844 71.074707,97.5361328 L71.074707,97.5361328 L72.7768555,97.4643555 L72.7768555,98.4794922 C72.7768555,99.5253906 72.4743652,100.338867 71.8693848,100.919922 C71.2644043,101.500977 70.4321289,101.791504 69.3725586,101.791504 Z M79.6879883,102.991211 L79.6879883,96.9619141 C79.6879883,95.8613281 80.0109863,94.9418945 80.6569824,94.2036133 C81.3029785,93.465332 82.0805664,93.0961914 82.9897461,93.0961914 C83.3452148,93.0961914 83.7553711,93.1474609 84.2202148,93.25 L84.2202148,93.25 L84.4560547,91.6708984 C84.0595703,91.5888672 83.6118164,91.5478516 83.112793,91.5478516 C82.4086914,91.5478516 81.7626953,91.7460938 81.1748047,92.1425781 C80.5869141,92.5390625 80.0844727,93.1030273 79.6674805,93.8344727 L79.6674805,93.8344727 L79.5854492,93.8344727 L79.390625,91.7529297 L77.9858398,91.7529297 L77.9858398,102.991211 L79.6879883,102.991211 Z M91.0493164,103.196289 C92.190918,103.196289 93.1376953,103.001465 93.8896484,102.611816 L93.8896484,102.611816 L93.8896484,101.104492 C92.9052734,101.507812 91.9448242,101.709473 91.0083008,101.709473 C89.9145508,101.709473 89.0891113,101.340332 88.5319824,100.602051 C87.9748535,99.8637695 87.6962891,98.8041992 87.6962891,97.4233398 C87.6962891,94.5112305 88.8378906,93.0551758 91.1210938,93.0551758 C91.4628906,93.0551758 91.855957,93.1047363 92.300293,93.2038574 C92.7446289,93.3029785 93.1547852,93.4277344 93.5307617,93.578125 L93.5307617,93.578125 L94.0537109,92.1323242 C93.7460938,91.9750977 93.3222656,91.8383789 92.7822266,91.722168 C92.2421875,91.605957 91.7021484,91.5478516 91.1621094,91.5478516 C89.4873047,91.5478516 88.1970215,92.0605469 87.2912598,93.0859375 C86.385498,94.1113281 85.9326172,95.5639648 85.9326172,97.4438477 C85.9326172,99.2758789 86.3786621,100.692627 87.270752,101.694092 C88.1628418,102.695557 89.4223633,103.196289 91.0493164,103.196289 Z M98.2578125,102.991211 L98.2578125,97.1157227 C98.2578125,95.652832 98.529541,94.6000977 99.072998,93.9575195 C99.6164551,93.3149414 100.479492,92.9936523 101.662109,92.9936523 C102.550781,92.9936523 103.203613,93.2192383 103.620605,93.6704102 C104.037598,94.121582 104.246094,94.8051758 104.246094,95.7211914 L104.246094,95.7211914 L104.246094,102.991211 L105.948242,102.991211 L105.948242,95.659668 C105.948242,94.237793 105.604736,93.2004395 104.917725,92.5476074 C104.230713,91.8947754 103.200195,91.5683594 101.826172,91.5683594 C101.033203,91.5683594 100.327393,91.723877 99.7087402,92.0349121 C99.0900879,92.3459473 98.6132812,92.7714844 98.2783203,93.3115234 L98.2783203,93.3115234 L98.1757812,93.3115234 C98.2304688,92.9287109 98.2578125,92.4467773 98.2578125,91.8657227 L98.2578125,91.8657227 L98.2578125,87.0361328 L96.5556641,87.0361328 L96.5556641,102.991211 L98.2578125,102.991211 Z" id="UserResearch" fill="#FFFFFF" fill-rule="nonzero"></path>
        <circle id="Oval" fill="#DB3056" cx="286" cy="82" r="82"></circle>
        <path d="M247.370605,93.4326172 C250.034668,93.4326172 252.128581,92.7111003 253.652344,91.2680664 C255.176107,89.8250326 255.937988,87.8421224 255.937988,85.3193359 L255.937988,85.3193359 L255.937988,71 L253.364746,71 L253.364746,85.4101562 C253.364746,87.2669271 252.860189,88.6923014 251.851074,89.6862793 C250.84196,90.6802572 249.403971,91.1772461 247.537109,91.1772461 C245.579427,91.1772461 244.096029,90.6827799 243.086914,89.6938477 C242.077799,88.7049154 241.573242,87.2871094 241.573242,85.4404297 L241.573242,85.4404297 L241.573242,71 L239,71 L239,85.2587891 C239,87.8017578 239.729085,89.7998047 241.187256,91.2529297 C242.645426,92.7060547 244.706543,93.4326172 247.370605,93.4326172 Z M261.599121,93.1298828 L267.653809,83.3969727 L273.602539,93.1298828 L276.523926,93.1298828 L269.137207,81.4746094 L275.994141,71 L273.254395,71 L267.714355,79.7641602 L262.219727,71 L259.374023,71 L266.230957,81.5654297 L258.874512,93.1298828 L261.599121,93.1298828 Z M287.513184,93.1298828 L295.762695,71 L293.25,71 L285.000488,93.1298828 L287.513184,93.1298828 Z M315.319336,93.4326172 C317.983398,93.4326172 320.077311,92.7111003 321.601074,91.2680664 C323.124837,89.8250326 323.886719,87.8421224 323.886719,85.3193359 L323.886719,85.3193359 L323.886719,71 L321.313477,71 L321.313477,85.4101562 C321.313477,87.2669271 320.808919,88.6923014 319.799805,89.6862793 C318.79069,90.6802572 317.352702,91.1772461 315.48584,91.1772461 C313.528158,91.1772461 312.044759,90.6827799 311.035645,89.6938477 C310.02653,88.7049154 309.521973,87.2871094 309.521973,85.4404297 L309.521973,85.4404297 L309.521973,71 L306.94873,71 L306.94873,85.2587891 C306.94873,87.8017578 307.677816,89.7998047 309.135986,91.2529297 C310.594157,92.7060547 312.655273,93.4326172 315.319336,93.4326172 Z M332.317871,93.1298828 L332.317871,71 L329.744629,71 L329.744629,93.1298828 L332.317871,93.1298828 Z" id="UX/UI" fill="#FFFFFF" fill-rule="nonzero"></path>
    </g>
</svg>