<?xml version="1.0" encoding="UTF-8"?>
<svg width="18px" height="18px" viewBox="0 0 18 18" version="1.1" xmlns="http://www.w3.org/2000/svg" xmlns:xlink="http://www.w3.org/1999/xlink">
    <!-- Generator: Sketch 63.1 (92452) - https://sketch.com -->
    <title>ant-design:fund-projection-screen-outlined</title>
    <desc>Created with Sketch.</desc>
    <g id="Desktop" stroke="none" stroke-width="1" fill="none" fill-rule="evenodd">
        <g id="Mobile-Copy-3" transform="translate(-64.000000, -177.000000)" fill-rule="nonzero">
            <g id="ant-design:fund-projection-screen-outlined" transform="translate(63.000000, 176.000000)">
                <g id="Icon" fill="#000000">
                    <path d="M6.09570313,11.5527344 C6.15625,11.6132812 6.25585938,11.6132812 6.31640625,11.5527344 L8.3046875,9.56445312 L9.98632812,11.2480469 C10.046875,11.3085938 10.1464844,11.3085938 10.2070312,11.2480469 L14.6269531,6.82421875 C14.6875,6.76367187 14.6875,6.6640625 14.6269531,6.60351562 L13.9082031,5.88476562 C13.8476562,5.82421875 13.7480469,5.82421875 13.6875,5.88476562 L10.0976562,9.47851562 L8.41601562,7.79492188 C8.35546875,7.734375 8.25585938,7.734375 8.1953125,7.79492188 L5.37695313,10.6132812 C5.31640625,10.6738281 5.31640625,10.7734375 5.37695313,10.8339844 L6.09570313,11.5527344 L6.09570313,11.5527344 Z" id="Icon-Path"></path>
                    <path d="M17.65625,3.125 L10.703125,3.125 L10.703125,1.875 C10.703125,1.7890625 10.6328125,1.71875 10.546875,1.71875 L9.453125,1.71875 C9.3671875,1.71875 9.296875,1.7890625 9.296875,1.875 L9.296875,3.125 L2.34375,3.125 C1.99804688,3.125 1.71875,3.40429688 1.71875,3.75 L1.71875,13.90625 C1.71875,14.2519531 1.99804688,14.53125 2.34375,14.53125 L9.3046875,14.53125 L9.3046875,15.15625 L6.0859375,17.2675781 C6.01367188,17.3144531 5.99414063,17.4101562 6.04101563,17.4824219 L6.6328125,18.4042969 L6.6328125,18.40625 C6.6796875,18.4785156 6.77734375,18.4980469 6.84960938,18.4511719 L10,16.3847656 L13.1503906,18.4511719 C13.2226562,18.4980469 13.3203125,18.4785156 13.3671875,18.40625 L13.3671875,18.4042969 L13.9589844,17.4824219 C14.0058594,17.4101562 13.984375,17.3144531 13.9140625,17.2675781 L10.703125,15.1621094 L10.703125,14.53125 L17.65625,14.53125 C18.0019531,14.53125 18.28125,14.2519531 18.28125,13.90625 L18.28125,3.75 C18.28125,3.40429688 18.0019531,3.125 17.65625,3.125 Z M16.875,13.125 L3.125,13.125 L3.125,4.53125 L16.875,4.53125 L16.875,13.125 Z" id="Icon-Shape"></path>
                </g>
                <rect id="ViewBox" x="0" y="0" width="20" height="20"></rect>
            </g>
        </g>
    </g>
</svg>