<?xml version="1.0" encoding="UTF-8"?>
<svg width="18px" height="14px" viewBox="0 0 18 14" version="1.1" xmlns="http://www.w3.org/2000/svg" xmlns:xlink="http://www.w3.org/1999/xlink">
    <!-- Generator: Sketch 63.1 (92452) - https://sketch.com -->
    <title>ant-design:mail-outlined</title>
    <desc>Created with Sketch.</desc>
    <g id="Desktop" stroke="none" stroke-width="1" fill="none" fill-rule="evenodd">
        <g id="Mobile-Copy-3" transform="translate(-64.000000, -500.000000)" fill-rule="nonzero">
            <g id="ant-design:mail-outlined" transform="translate(63.000000, 497.000000)">
                <g id="Icon" fill="#000000">
                    <path d="M18.125,3.125 L1.875,3.125 C1.52929688,3.125 1.25,3.40429688 1.25,3.75 L1.25,16.25 C1.25,16.5957031 1.52929688,16.875 1.875,16.875 L18.125,16.875 C18.4707031,16.875 18.75,16.5957031 18.75,16.25 L18.75,3.75 C18.75,3.40429688 18.4707031,3.125 18.125,3.125 Z M17.34375,5.2890625 L17.34375,15.46875 L2.65625,15.46875 L2.65625,5.2890625 L2.1171875,4.86914062 L2.88476562,3.8828125 L3.72070312,4.53320312 L16.28125,4.53320312 L17.1171875,3.8828125 L17.8847656,4.86914062 L17.34375,5.2890625 L17.34375,5.2890625 Z M16.28125,4.53125 L10,9.4140625 L3.71875,4.53125 L2.8828125,3.88085938 L2.11523438,4.8671875 L2.65429688,5.28710938 L9.32617188,10.4746094 C9.72087923,10.7812525 10.2732614,10.7812525 10.6679688,10.4746094 L17.34375,5.2890625 L17.8828125,4.86914063 L17.1152344,3.8828125 L16.28125,4.53125 Z" id="Icon-Shape"></path>
                </g>
                <rect id="ViewBox" x="0" y="0" width="20" height="20"></rect>
            </g>
        </g>
    </g>
</svg>