<?xml version="1.0" encoding="UTF-8"?>
<svg width="18px" height="17px" viewBox="0 0 18 17" version="1.1" xmlns="http://www.w3.org/2000/svg" xmlns:xlink="http://www.w3.org/1999/xlink">
    <!-- Generator: Sketch 63.1 (92452) - https://sketch.com -->
    <title>ic-round-work-outline</title>
    <desc>Created with Sketch.</desc>
    <g id="Desktop" stroke="none" stroke-width="1" fill="none" fill-rule="evenodd">
        <g id="Mobile-Copy-3" transform="translate(-64.000000, -131.000000)" fill-rule="nonzero">
            <g id="ic-round-work-outline" transform="translate(63.000000, 130.000000)">
                <g id="Icon" fill="#000000">
                    <path d="M11.6666667,5 L11.6666667,3.33333333 L8.33333333,3.33333333 L8.33333333,5 L11.6666667,5 Z M3.33333333,7.5 L3.33333333,15 C3.33333333,15.4583333 3.70833333,15.8333333 4.16666667,15.8333333 L15.8333333,15.8333333 C16.2916667,15.8333333 16.6666667,15.4583333 16.6666667,15 L16.6666667,7.5 C16.6666667,7.04166667 16.2916667,6.66666667 15.8333333,6.66666667 L4.16666667,6.66666667 C3.70833333,6.66666667 3.33333333,7.04166667 3.33333333,7.5 Z M16.6666667,5 C17.5916667,5 18.3333333,5.74166667 18.3333333,6.66666667 L18.3333333,15.8333333 C18.3333333,16.7583333 17.5916667,17.5 16.6666667,17.5 L3.33333333,17.5 C2.40833333,17.5 1.66666667,16.7583333 1.66666667,15.8333333 L1.675,6.66666667 C1.675,5.74166667 2.40833333,5 3.33333333,5 L6.66666667,5 L6.66666667,3.33333333 C6.66666667,2.40833333 7.40833333,1.66666667 8.33333333,1.66666667 L11.6666667,1.66666667 C12.5916667,1.66666667 13.3333333,2.40833333 13.3333333,3.33333333 L13.3333333,5 L16.6666667,5 Z" id="Icon-Shape"></path>
                </g>
                <rect id="ViewBox" x="0" y="0" width="20" height="20"></rect>
            </g>
        </g>
    </g>
</svg>