<?xml version="1.0" encoding="UTF-8"?>
<svg width="42px" height="42px" viewBox="0 0 42 42" version="1.1" xmlns="http://www.w3.org/2000/svg" xmlns:xlink="http://www.w3.org/1999/xlink">
    <!-- Generator: Sketch 63.1 (92452) - https://sketch.com -->
    <title>et-linkedin</title>
    <desc>Created with Sketch.</desc>
    <g id="Desktop" stroke="none" stroke-width="1" fill="none" fill-rule="evenodd">
        <g id="Costocking" transform="translate(-73.000000, -924.000000)" fill="#000000" fill-rule="nonzero">
            <g id="et-linkedin" transform="translate(73.000000, 924.000000)">
                <g id="Icon">
                    <g id="Icon-Group">
                        <path d="M25.5488235,15.7614118 C24.6714118,15.7614118 24.0217647,15.9827059 23.5131765,16.2622353 C23.4316471,15.9723529 23.1637647,15.7601176 22.848,15.8235294 L18.9863529,15.8235294 C18.6045882,15.7601176 18.2952941,16.0694118 18.4130588,16.4705882 L18.4130588,30.7058824 C18.2952941,31.0682353 18.6045882,31.3788235 18.9863529,31.3529412 L22.848,31.3529412 C23.2297647,31.3788235 23.5390588,31.0682353 23.5390588,30.6864706 L23.5377647,22.0831765 C23.5364706,22.0792941 23.5222353,21.6677647 23.7823529,21.3843529 C23.9907059,21.1591765 24.3491765,21.044 24.8448235,21.044 C25.6704706,21.044 26.038,21.3817647 26.1751765,22.1375294 L26.1751765,30.6864706 C26.0392941,31.0682353 26.3485882,31.3788235 26.7303529,31.3529412 L30.8003529,31.3529412 C31.1821176,31.3788235 31.4914118,31.0682353 31.3542353,30.6864706 L31.3542353,21.8502353 C31.4901176,17.3570588 28.2897647,15.7614118 25.5488235,15.7614118 L25.5488235,15.7614118 Z M30.108,30.0588235 L27.4214118,30.0588235 L27.4214118,22.1375294 C27.4214118,20.6091765 26.434,19.6618824 24.8461176,19.6618824 C23.948,19.6618824 23.2491765,19.9258824 22.7677647,20.4461176 C22.0987059,21.1708235 22.1504706,22.0896471 22.2941176,22.2941176 L22.2941176,30.0588235 L19.6774118,30.0588235 L19.6774118,17.1435294 L22.1569412,17.1435294 L22.1569412,17.5783529 C22.1548756,17.8426802 22.3043308,18.0848506 22.5415267,18.2015178 C22.7787226,18.3181851 23.0617716,18.2887464 23.2698824,18.1257647 L23.4510588,17.986 C23.9751765,17.5731765 24.5174118,17.1448235 25.5501176,17.1448235 C26.6190588,17.1448235 30.1092941,17.4851765 30.1092941,21.8515294 L30.1092941,30.0588235 L30.108,30.0588235 Z" id="Icon-Shape"></path>
                        <path d="M14.5294118,9.30894118 C13.0774118,9.30894118 11.8971765,10.4891765 11.8971765,11.9411765 C11.8971765,13.3931765 13.0774118,14.5734118 14.5294118,14.5734118 C15.9814118,14.5734118 17.1616471,13.3931765 17.1616471,11.9411765 C17.1616471,10.4891765 15.9814118,9.30894118 14.5294118,9.30894118 Z M14.5294118,13.1912941 C13.8409412,13.1912941 13.2792941,12.6296471 13.2792941,11.9411765 C13.2792941,11.2527059 13.8409412,10.6910588 14.5294118,10.6910588 C15.2178824,10.6910588 15.7795294,11.2527059 15.7795294,11.9411765 C15.7795294,12.6296471 15.2178824,13.1912941 14.5294118,13.1912941 Z" id="Icon-Shape"></path>
                        <path d="M16.3774118,15.7601176 L12.5364706,15.7601176 C12.1547059,15.7601176 11.8454118,16.0694118 11.9411765,16.4705882 L11.9411765,30.7058824 C11.8454118,31.0682353 12.1547059,31.3788235 12.5364706,31.3529412 L16.3774118,31.3529412 C16.7591765,31.3788235 17.0684706,31.0682353 17.0684706,30.6864706 L17.0684706,16.4511765 C17.0684706,16.0695152 16.759073,15.7601176 16.3774118,15.7601176 Z M15.8235294,30.0588235 L13.2275294,30.0588235 L13.2275294,17.1435294 L15.8235294,17.1435294 L15.8235294,30.0588235 Z" id="Icon-Shape"></path>
                        <path d="M21,0.250117647 C9.55741176,0.250117647 0.250117647,9.55741176 0.250117647,21 C0.250117647,32.4425882 9.55741176,41.7498824 21,41.7498824 C32.4425882,41.7498824 41.7498824,32.4425882 41.7498824,21 C41.7498824,9.55741176 32.4425882,0.250117647 21,0.250117647 Z M21,40.3677647 C10.3209412,40.3677647 1.63223529,31.6790588 1.63223529,21 C1.63223529,10.3209412 10.3209412,1.63223529 21,1.63223529 C31.6790588,1.63223529 40.3677647,10.3209412 40.3677647,21 C40.3677647,31.6790588 31.6790588,40.3677647 21,40.3677647 Z" id="Icon-Shape"></path>
                    </g>
                </g>
            </g>
        </g>
    </g>
</svg>