<?xml version="1.0" encoding="UTF-8"?>
<svg width="14px" height="20px" viewBox="0 0 14 20" version="1.1" xmlns="http://www.w3.org/2000/svg" xmlns:xlink="http://www.w3.org/1999/xlink">
    <!-- Generator: Sketch 63.1 (92452) - https://sketch.com -->
    <title>Artboard</title>
    <desc>Created with Sketch.</desc>
    <g id="Artboard" stroke="none" stroke-width="1" fill="none" fill-rule="evenodd">
        <path d="M13,6 C13,2.69 10.31,0 7,0 C3.69,0 1,2.69 1,6 C1,10.5 7,17 7,17 C7,17 13,10.5 13,6 Z M5,6 C5,4.9 5.9,4 7,4 C8.1,4 9,4.9 9,6 C9,7.1045695 8.1045695,8 7,8 C5.8954305,8 5,7.1045695 5,6 Z M0,18 L0,20 L14,20 L14,18 L0,18 Z" id="Icon-Shape" fill="#3E3E3E" fill-rule="nonzero"></path>
    </g>
</svg>