<?xml version="1.0" encoding="UTF-8"?>
<svg width="60px" height="60px" viewBox="0 0 60 60" version="1.1" xmlns="http://www.w3.org/2000/svg" xmlns:xlink="http://www.w3.org/1999/xlink">
    <!-- Generator: Sketch 63.1 (92452) - https://sketch.com -->
    <title>scroll (1)</title>
    <desc>Created with Sketch.</desc>
    <g id="Desktop" stroke="none" stroke-width="1" fill="none" fill-rule="evenodd">
        <g id="Home" transform="translate(-788.000000, -915.000000)" fill-rule="nonzero">
            <g id="scroll-(1)" transform="translate(788.000000, 915.000000)">
                <path d="M60,30 C60,46.5687561 46.5687561,60 30,60 C13.4312439,60 0,46.5687561 0,30 C0,13.4312439 13.4312439,0 30,0 C46.5687561,0 60,13.4312439 60,30 Z" id="Path" fill="#ACACAC"></path>
                <g id="Group" transform="translate(17.000000, 10.000000)" fill="#FFFFFF">
                    <polygon id="Path" points="13.0189275 33.7120933 5.96541187 26.2453773 8.54140631 23.8054734 13.0120028 28.5382767 17.4553622 23.8091716 20.0378196 26.2416791"></polygon>
                    <path d="M13,39.8825813 C5.8541548,39.8825813 0.040625,34.0611131 0.040625,26.9055103 L0.040625,13.0944897 C0.040625,5.93888686 5.8541548,0.117418698 13,0.117418698 C20.1458452,0.117418698 25.959375,5.93888686 25.959375,13.0944897 L25.959375,26.9055103 C25.959375,34.0611131 20.1458452,39.8825813 13,39.8825813 Z M13,3.66771456 C7.80877134,3.66771456 3.58607955,7.89663456 3.58607955,13.0944897 L3.58607955,26.9055103 C3.58607955,32.1033654 7.80877134,36.3322854 13,36.3322854 C18.190767,36.3322854 22.4139205,32.1033654 22.4139205,26.9055103 L22.4139205,13.0944897 C22.4139205,7.89663456 18.190767,3.66771456 13,3.66771456 Z" id="Shape"></path>
                    <path d="M14.5326705,8.10743337 C14.5326705,8.95478923 13.8462003,9.64173444 13,9.64173444 C12.1537997,9.64173444 11.4673295,8.95478923 11.4673295,8.10743337 C11.4673295,7.26007763 12.1537997,6.57267006 13,6.57267006 C13.8462003,6.57267006 14.5326705,7.26007763 14.5326705,8.10743337 Z" id="Path"></path>
                    <path d="M14.5326705,8.10743337 C14.5326705,8.95478923 13.8462003,9.64173444 13,9.64173444 C12.1537997,9.64173444 11.4673295,8.95478923 11.4673295,8.10743337 C11.4673295,7.26007763 12.1537997,6.57267006 13,6.57267006 C13.8462003,6.57267006 14.5326705,7.26007763 14.5326705,8.10743337 Z" id="Path"></path>
                    <path d="M14.5326705,14.2455621 C14.5326705,15.0929179 13.8462003,15.7798632 13,15.7798632 C12.1537997,15.7798632 11.4673295,15.0929179 11.4673295,14.2455621 C11.4673295,13.3982064 12.1537997,12.7107988 13,12.7107988 C13.8462003,12.7107988 14.5326705,13.3982064 14.5326705,14.2455621 Z" id="Path"></path>
                    <path d="M14.5326705,14.2455621 C14.5326705,15.0929179 13.8462003,15.7798632 13,15.7798632 C12.1537997,15.7798632 11.4673295,15.0929179 11.4673295,14.2455621 C11.4673295,13.3982064 12.1537997,12.7107988 13,12.7107988 C13.8462003,12.7107988 14.5326705,13.3982064 14.5326705,14.2455621 Z" id="Path"></path>
                    <path d="M14.5326705,20.3836909 C14.5326705,21.2310466 13.8462003,21.9179918 13,21.9179918 C12.1537997,21.9179918 11.4673295,21.2310466 11.4673295,20.3836909 C11.4673295,19.5358728 12.1537997,18.8489276 13,18.8489276 C13.8462003,18.8489276 14.5326705,19.5358728 14.5326705,20.3836909 Z" id="Path"></path>
                    <path d="M14.5326705,20.3836909 C14.5326705,21.2310466 13.8462003,21.9179918 13,21.9179918 C12.1537997,21.9179918 11.4673295,21.2310466 11.4673295,20.3836909 C11.4673295,19.5358728 12.1537997,18.8489276 13,18.8489276 C13.8462003,18.8489276 14.5326705,19.5358728 14.5326705,20.3836909 Z" id="Path"></path>
                </g>
            </g>
        </g>
    </g>
</svg>